<?xml version="1.0" encoding="UTF-8"?>
<svg xmlns="http://www.w3.org/2000/svg" width="900" height="170" viewBox="0 0 900 170">
  <defs>
    <marker id="arrowhead" markerWidth="8" markerHeight="6" refX="8" refY="3" orient="auto">
      <polygon points="0 0, 8 3, 0 6" fill="currentColor"/>
    </marker>
    <marker id="arrowhead-rev" markerWidth="8" markerHeight="6" refX="0" refY="3" orient="auto">
      <polygon points="8 0, 0 3, 8 6" fill="currentColor"/>
    </marker>
  </defs>

  <style>
    .title { font: bold 16px sans-serif; fill: #333; }
    .subtitle { font: 13px sans-serif; fill: #666; }
    .gene-label { font: 11px monospace; fill: #333; }
    .region-label { font: 10px sans-serif; fill: #999; text-anchor: middle; }
    .badge { font: bold 10px sans-serif; }
    .confidence-note { font: italic 10px sans-serif; fill: #999; }
    .warning-text { font: 11px sans-serif; fill: #E74C3C; }
    .missing { stroke-dasharray: 5,3; fill: none; stroke-width: 2; }
  </style>

  <!-- Title banner -->
  <text x="20" y="30" class="title">
    SCCmec Type I (1B)
  </text>
  <text x="20" y="50" class="subtitle">
    mec: Class B | ccr: Type 1 | Confidence: High (1.00)
  </text>

  <!-- Confidence badge -->
  <rect x="780" y="15" width="100" height="28" rx="4"
        fill="#27AE60" opacity="0.9"/>
  <text x="830" y="34" text-anchor="middle" class="badge" fill="white">
    High 100%
  </text>

  <!-- J region backgrounds -->
  
  <rect x="58" y="75" width="40" height="30"
        fill="#F0F0F0" rx="2"/>
  <text x="78.0" y="117" class="region-label">
    J3
  </text>
  
  <rect x="280.0" y="75" width="40" height="30"
        fill="#F0F0F0" rx="2"/>
  <text x="300.0" y="117" class="region-label">
    J2
  </text>
  
  <rect x="850.0" y="75" width="40" height="30"
        fill="#F0F0F0" rx="2"/>
  <text x="870.0" y="117" class="region-label">
    J1
  </text>
  

  <!-- DR boundaries -->
  
  <polygon points="20,78 50,90 20,102" fill="#DC143C" opacity="0.8"/>
  
  <polygon points="898.0,78 928.0,90 898.0,102" fill="#DC143C" opacity="0.8"/>
  

  <!-- Gene arrows -->
  
  
  <rect x="106" y="78" width="79.0" height="24"
        fill="#7B68EE" opacity="1.0" rx="2"/>
  
  <polygon points="106,78 179.0,78 185.0,90 179.0,102 106,102" fill="#7B68EE" opacity="1.0"/>
  
  
  <text x="145.5" y="74" class="gene-label" text-anchor="middle">
    ccrA1
  </text>
  
  <text x="145.5" y="114" class="gene-label" text-anchor="middle"
        fill="#27AE60">
    100%
  </text>
  
  
  
  <rect x="193.0" y="78" width="79.0" height="24"
        fill="#7B68EE" opacity="1.0" rx="2"/>
  
  <polygon points="193.0,78 266.0,78 272.0,90 266.0,102 193.0,102" fill="#7B68EE" opacity="1.0"/>
  
  
  <text x="232.5" y="74" class="gene-label" text-anchor="middle">
    ccrB1
  </text>
  
  <text x="232.5" y="114" class="gene-label" text-anchor="middle"
        fill="#27AE60">
    100%
  </text>
  
  
  
  <rect x="328.0" y="78" width="79.0" height="24"
        fill="#95A5A6" opacity="1.0" rx="2"/>
  
  <polygon points="328.0,78 401.0,78 407.0,90 401.0,102 328.0,102" fill="#95A5A6" opacity="1.0"/>
  
  
  <text x="367.5" y="74" class="gene-label" text-anchor="middle">
    IS1272
  </text>
  
  <text x="367.5" y="114" class="gene-label" text-anchor="middle"
        fill="#27AE60">
    100%
  </text>
  
  
  
  <rect x="415.0" y="78" width="79.0" height="24"
        fill="#95A5A6" opacity="1.0" rx="2"/>
  
  <polygon points="415.0,78 488.0,78 494.0,90 488.0,102 415.0,102" fill="#95A5A6" opacity="1.0"/>
  
  
  <text x="454.5" y="74" class="gene-label" text-anchor="middle">
    IS431
  </text>
  
  <text x="454.5" y="114" class="gene-label" text-anchor="middle"
        fill="#27AE60">
    100%
  </text>
  
  
  
  <rect x="502.0" y="78" width="79.0" height="24"
        fill="#95A5A6" opacity="1.0" rx="2"/>
  
  <polygon points="502.0,78 575.0,78 581.0,90 575.0,102 502.0,102" fill="#95A5A6" opacity="1.0"/>
  
  
  <text x="541.5" y="74" class="gene-label" text-anchor="middle">
    IS431_1
  </text>
  
  <text x="541.5" y="114" class="gene-label" text-anchor="middle"
        fill="#27AE60">
    100%
  </text>
  
  
  
  <rect x="589.0" y="78" width="79.0" height="24"
        fill="#95A5A6" opacity="1.0" rx="2"/>
  
  <polygon points="589.0,78 662.0,78 668.0,90 662.0,102 589.0,102" fill="#95A5A6" opacity="1.0"/>
  
  
  <text x="628.5" y="74" class="gene-label" text-anchor="middle">
    IS431_2
  </text>
  
  <text x="628.5" y="114" class="gene-label" text-anchor="middle"
        fill="#27AE60">
    100%
  </text>
  
  
  
  <rect x="676.0" y="78" width="79.0" height="24"
        fill="#DC143C" opacity="1.0" rx="2"/>
  
  <polygon points="676.0,78 749.0,78 755.0,90 749.0,102 676.0,102" fill="#DC143C" opacity="1.0"/>
  
  
  <text x="715.5" y="74" class="gene-label" text-anchor="middle">
    mecA
  </text>
  
  <text x="715.5" y="114" class="gene-label" text-anchor="middle"
        fill="#27AE60">
    100%
  </text>
  
  
  
  <rect x="763.0" y="78" width="79.0" height="24"
        fill="#E8A0BF" opacity="1.0" rx="2"/>
  
  <polygon points="763.0,78 836.0,78 842.0,90 836.0,102 763.0,102" fill="#E8A0BF" opacity="1.0"/>
  
  
  <text x="802.5" y="74" class="gene-label" text-anchor="middle">
    mecR1
  </text>
  
  <text x="802.5" y="114" class="gene-label" text-anchor="middle"
        fill="#27AE60">
    100%
  </text>
  
  

  <!-- Component confidence badges -->
  
  <text x="550.0" y="140" class="badge" fill="#27AE60">
    mec (Class B): High (1.00)
  </text>
  
  <text x="100" y="140" class="badge" fill="#27AE60">
    ccr (Type 1): High (1.00)
  </text>
  

  <!-- Warnings -->
  

  
</svg>