<?xml version="1.0" encoding="UTF-8"?>
<svg xmlns="http://www.w3.org/2000/svg" width="900" height="170" viewBox="0 0 900 170">
  <defs>
    <marker id="arrowhead" markerWidth="8" markerHeight="6" refX="8" refY="3" orient="auto">
      <polygon points="0 0, 8 3, 0 6" fill="currentColor"/>
    </marker>
    <marker id="arrowhead-rev" markerWidth="8" markerHeight="6" refX="0" refY="3" orient="auto">
      <polygon points="8 0, 0 3, 8 6" fill="currentColor"/>
    </marker>
  </defs>

  <style>
    .title { font: bold 16px sans-serif; fill: #333; }
    .subtitle { font: 13px sans-serif; fill: #666; }
    .gene-label { font: 11px monospace; fill: #333; }
    .region-label { font: 10px sans-serif; fill: #999; text-anchor: middle; }
    .badge { font: bold 10px sans-serif; }
    .confidence-note { font: italic 10px sans-serif; fill: #999; }
    .warning-text { font: 11px sans-serif; fill: #E74C3C; }
    .missing { stroke-dasharray: 5,3; fill: none; stroke-width: 2; }
  </style>

  <!-- Title banner -->
  <text x="20" y="30" class="title">
    SCCmec Type XI (8E)
  </text>
  <text x="20" y="50" class="subtitle">
    mec: Class E | ccr: Type 8 | Confidence: High (1.00)
  </text>

  <!-- Confidence badge -->
  <rect x="780" y="15" width="100" height="28" rx="4"
        fill="#27AE60" opacity="0.9"/>
  <text x="830" y="34" text-anchor="middle" class="badge" fill="white">
    High 100%
  </text>

  <!-- J region backgrounds -->
  
  <rect x="58" y="75" width="40" height="30"
        fill="#F0F0F0" rx="2"/>
  <text x="78.0" y="117" class="region-label">
    J3
  </text>
  
  <rect x="282" y="75" width="40" height="30"
        fill="#F0F0F0" rx="2"/>
  <text x="302.0" y="117" class="region-label">
    J2
  </text>
  
  <rect x="682" y="75" width="40" height="30"
        fill="#F0F0F0" rx="2"/>
  <text x="702.0" y="117" class="region-label">
    J1
  </text>
  

  <!-- DR boundaries -->
  
  <polygon points="20,78 50,90 20,102" fill="#DC143C" opacity="0.8"/>
  
  <polygon points="730,78 760,90 730,102" fill="#DC143C" opacity="0.8"/>
  

  <!-- Gene arrows -->
  
  
  <rect x="106" y="78" width="80" height="24"
        fill="#7B68EE" opacity="1.0" rx="2"/>
  
  <polygon points="106,78 180,78 186,90 180,102 106,102" fill="#7B68EE" opacity="1.0"/>
  
  
  <text x="146.0" y="74" class="gene-label" text-anchor="middle">
    ccrA1
  </text>
  
  <text x="146.0" y="114" class="gene-label" text-anchor="middle"
        fill="#27AE60">
    100%
  </text>
  
  
  
  <rect x="194" y="78" width="80" height="24"
        fill="#7B68EE" opacity="1.0" rx="2"/>
  
  <polygon points="194,78 268,78 274,90 268,102 194,102" fill="#7B68EE" opacity="1.0"/>
  
  
  <text x="234.0" y="74" class="gene-label" text-anchor="middle">
    ccrB3
  </text>
  
  <text x="234.0" y="114" class="gene-label" text-anchor="middle"
        fill="#27AE60">
    100%
  </text>
  
  
  
  <rect x="330" y="78" width="80" height="24"
        fill="#8E44AD" opacity="1.0" rx="2"/>
  
  <polygon points="330,78 404,78 410,90 404,102 330,102" fill="#8E44AD" opacity="1.0"/>
  
  
  <text x="370.0" y="74" class="gene-label" text-anchor="middle">
    blaZ
  </text>
  
  <text x="370.0" y="114" class="gene-label" text-anchor="middle"
        fill="#27AE60">
    100%
  </text>
  
  
  
  <rect x="418" y="78" width="80" height="24"
        fill="#DC143C" opacity="1.0" rx="2"/>
  
  <polygon points="418,78 492,78 498,90 492,102 418,102" fill="#DC143C" opacity="1.0"/>
  
  
  <text x="458.0" y="74" class="gene-label" text-anchor="middle">
    mecC
  </text>
  
  <text x="458.0" y="114" class="gene-label" text-anchor="middle"
        fill="#27AE60">
    100%
  </text>
  
  
  
  <rect x="506" y="78" width="80" height="24"
        fill="#E8A0BF" opacity="1.0" rx="2"/>
  
  <polygon points="506,78 580,78 586,90 580,102 506,102" fill="#E8A0BF" opacity="1.0"/>
  
  
  <text x="546.0" y="74" class="gene-label" text-anchor="middle">
    mecI
  </text>
  
  <text x="546.0" y="114" class="gene-label" text-anchor="middle"
        fill="#27AE60">
    100%
  </text>
  
  
  
  <rect x="594" y="78" width="80" height="24"
        fill="#E8A0BF" opacity="1.0" rx="2"/>
  
  <polygon points="594,78 668,78 674,90 668,102 594,102" fill="#E8A0BF" opacity="1.0"/>
  
  
  <text x="634.0" y="74" class="gene-label" text-anchor="middle">
    mecR1
  </text>
  
  <text x="634.0" y="114" class="gene-label" text-anchor="middle"
        fill="#27AE60">
    100%
  </text>
  
  

  <!-- Component confidence badges -->
  
  <text x="550.0" y="140" class="badge" fill="#27AE60">
    mec (Class E): High (1.00)
  </text>
  
  <text x="100" y="140" class="badge" fill="#27AE60">
    ccr (Type 8): High (1.00)
  </text>
  

  <!-- Warnings -->
  

  
</svg>